<svg width="116" height="116" viewBox="0 0 116 116" fill="none" xmlns="http://www.w3.org/2000/svg">
<path d="M73.048 31.35C70.882 31.35 68.716 32.034 67.006 33.174L53.782 19.836C54.922 18.126 55.606 16.074 55.606 13.794C55.606 7.752 50.704 2.736 44.548 2.736C38.392 2.736 33.49 7.638 33.49 13.794C33.49 15.96 34.174 18.126 35.314 19.836L21.976 33.06C20.266 31.92 18.214 31.236 15.934 31.236C9.89198 31.236 4.87598 36.138 4.87598 42.294C4.87598 48.45 9.77798 53.352 15.934 53.352C22.09 53.352 26.992 48.45 26.992 42.294C26.992 40.128 26.308 37.962 25.168 36.252L38.392 23.028C40.102 24.168 42.154 24.852 44.434 24.852C46.6 24.852 48.766 24.168 50.476 23.028L63.7 36.252C62.56 37.962 61.876 40.014 61.876 42.294C61.876 48.336 66.778 53.352 72.934 53.352C78.976 53.352 83.992 48.45 83.992 42.294C83.992 36.138 79.09 31.35 73.048 31.35Z" fill="white"/>
<path d="M101.548 59.85C95.506 59.85 90.49 64.752 90.49 70.908C90.49 73.074 91.174 75.24 92.314 76.95L78.976 90.06C77.266 88.92 75.214 88.236 72.934 88.236C70.768 88.236 68.602 88.92 66.892 90.06L53.782 76.836C54.922 75.126 55.606 73.074 55.606 70.794C55.606 64.752 50.704 59.736 44.548 59.736C38.392 59.736 33.49 64.638 33.49 70.794C33.49 76.836 38.392 81.852 44.548 81.852C46.714 81.852 48.88 81.168 50.59 80.028L63.814 93.252C62.674 94.962 61.99 97.014 61.99 99.294C61.99 105.336 66.892 110.352 73.048 110.352C79.09 110.352 84.106 105.45 84.106 99.294C84.106 97.128 83.422 94.962 82.282 93.252L95.506 80.028C97.216 81.168 99.268 81.852 101.548 81.852C107.59 81.852 112.606 76.95 112.606 70.794C112.492 64.752 107.59 59.85 101.548 59.85Z" fill="white"/>
<path d="M44.548 88.35C42.382 88.35 40.216 89.034 38.506 90.174L25.282 76.836C26.422 75.126 27.106 73.074 27.106 70.794C27.106 68.628 26.422 66.462 25.282 64.752L38.506 51.528C40.216 52.668 42.268 53.352 44.548 53.352C50.59 53.352 55.606 48.45 55.606 42.294C55.606 36.138 50.704 31.236 44.548 31.236C38.392 31.236 33.49 36.138 33.49 42.294C33.49 44.46 34.174 46.626 35.314 48.336L21.976 61.56C20.266 60.42 18.214 59.736 15.934 59.736C9.89198 59.736 4.87598 64.638 4.87598 70.794C4.87598 76.836 9.77798 81.852 15.934 81.852C18.1 81.852 20.266 81.168 21.976 80.028L35.2 93.252C34.06 94.962 33.376 97.014 33.376 99.294C33.376 105.336 38.278 110.352 44.434 110.352C50.59 110.352 55.492 105.45 55.492 99.294C55.492 93.252 50.59 88.35 44.548 88.35Z" fill="white"/>
<path d="M101.548 31.35C99.382 31.35 97.216 32.034 95.506 33.174L82.282 19.836C83.422 18.126 84.106 16.074 84.106 13.794C84.106 7.752 79.204 2.736 73.048 2.736C67.006 2.736 61.99 7.638 61.99 13.794C61.99 19.95 66.892 24.852 73.048 24.852C75.214 24.852 77.38 24.168 79.09 23.028L92.314 36.252C91.174 37.962 90.49 40.014 90.49 42.294C90.49 44.46 91.174 46.626 92.314 48.336L78.976 61.56C77.266 60.42 75.214 59.736 72.934 59.736C66.892 59.736 61.876 64.638 61.876 70.794C61.876 76.836 66.778 81.852 72.934 81.852C78.976 81.852 83.992 76.95 83.992 70.794C83.992 68.628 83.308 66.462 82.168 64.752L95.392 51.528C97.102 52.668 99.154 53.352 101.434 53.352C107.476 53.352 112.492 48.45 112.492 42.294C112.492 36.138 107.59 31.35 101.548 31.35Z" fill="white"/>
</svg>
