<svg width="646" height="133" viewBox="0 0 646 133" fill="none" xmlns="http://www.w3.org/2000/svg">
<path d="M86.048 39.35C83.882 39.35 81.716 40.034 80.006 41.174L66.782 27.836C67.922 26.126 68.606 24.074 68.606 21.794C68.606 15.752 63.704 10.736 57.548 10.736C51.392 10.736 46.49 15.638 46.49 21.794C46.49 23.96 47.174 26.126 48.314 27.836L34.976 41.06C33.266 39.92 31.214 39.236 28.934 39.236C22.892 39.236 17.876 44.138 17.876 50.294C17.876 56.45 22.778 61.352 28.934 61.352C35.09 61.352 39.992 56.45 39.992 50.294C39.992 48.128 39.308 45.962 38.168 44.252L51.392 31.028C53.102 32.168 55.154 32.852 57.434 32.852C59.6 32.852 61.766 32.168 63.476 31.028L76.7 44.252C75.56 45.962 74.876 48.014 74.876 50.294C74.876 56.336 79.778 61.352 85.934 61.352C91.976 61.352 96.992 56.45 96.992 50.294C96.992 44.138 92.09 39.35 86.048 39.35Z" fill="#515151"/>
<path d="M114.548 67.85C108.506 67.85 103.49 72.752 103.49 78.908C103.49 81.074 104.174 83.24 105.314 84.95L91.976 98.06C90.266 96.92 88.214 96.236 85.934 96.236C83.768 96.236 81.602 96.92 79.892 98.06L66.782 84.836C67.922 83.126 68.606 81.074 68.606 78.794C68.606 72.752 63.704 67.736 57.548 67.736C51.392 67.736 46.49 72.638 46.49 78.794C46.49 84.836 51.392 89.852 57.548 89.852C59.714 89.852 61.88 89.168 63.59 88.028L76.814 101.252C75.674 102.962 74.99 105.014 74.99 107.294C74.99 113.336 79.892 118.352 86.048 118.352C92.09 118.352 97.106 113.45 97.106 107.294C97.106 105.128 96.422 102.962 95.282 101.252L108.506 88.028C110.216 89.168 112.268 89.852 114.548 89.852C120.59 89.852 125.606 84.95 125.606 78.794C125.492 72.752 120.59 67.85 114.548 67.85Z" fill="#515151"/>
<path d="M57.548 96.35C55.382 96.35 53.216 97.034 51.506 98.174L38.282 84.836C39.422 83.126 40.106 81.074 40.106 78.794C40.106 76.628 39.422 74.462 38.282 72.752L51.506 59.528C53.216 60.668 55.268 61.352 57.548 61.352C63.59 61.352 68.606 56.45 68.606 50.294C68.606 44.138 63.704 39.236 57.548 39.236C51.392 39.236 46.49 44.138 46.49 50.294C46.49 52.46 47.174 54.626 48.314 56.336L34.976 69.56C33.266 68.42 31.214 67.736 28.934 67.736C22.892 67.736 17.876 72.638 17.876 78.794C17.876 84.836 22.778 89.852 28.934 89.852C31.1 89.852 33.266 89.168 34.976 88.028L48.2 101.252C47.06 102.962 46.376 105.014 46.376 107.294C46.376 113.336 51.278 118.352 57.434 118.352C63.59 118.352 68.492 113.45 68.492 107.294C68.492 101.252 63.59 96.35 57.548 96.35Z" fill="#515151"/>
<path d="M114.548 39.35C112.382 39.35 110.216 40.034 108.506 41.174L95.282 27.836C96.422 26.126 97.106 24.074 97.106 21.794C97.106 15.752 92.204 10.736 86.048 10.736C80.006 10.736 74.99 15.638 74.99 21.794C74.99 27.95 79.892 32.852 86.048 32.852C88.214 32.852 90.38 32.168 92.09 31.028L105.314 44.252C104.174 45.962 103.49 48.014 103.49 50.294C103.49 52.46 104.174 54.626 105.314 56.336L91.976 69.56C90.266 68.42 88.214 67.736 85.934 67.736C79.892 67.736 74.876 72.638 74.876 78.794C74.876 84.836 79.778 89.852 85.934 89.852C91.976 89.852 96.992 84.95 96.992 78.794C96.992 76.628 96.308 74.462 95.168 72.752L108.392 59.528C110.102 60.668 112.154 61.352 114.434 61.352C120.476 61.352 125.492 56.45 125.492 50.294C125.492 44.138 120.59 39.35 114.548 39.35Z" fill="#515151"/>
<path d="M154.447 82.6484V47.7474H157.888V79.6007H178.042V82.6484H154.447ZM192.901 83.14C191.066 83.14 189.362 82.7959 187.789 82.1077C186.216 81.3867 184.856 80.42 183.709 79.2074C182.562 77.9621 181.661 76.5366 181.005 74.9308C180.383 73.3251 180.071 71.6046 180.071 69.7694C180.071 67.3771 180.612 65.1815 181.693 63.1825C182.808 61.1834 184.331 59.594 186.265 58.4143C188.198 57.2018 190.394 56.5955 192.852 56.5955C195.375 56.5955 197.571 57.2018 199.439 58.4143C201.34 59.6268 202.831 61.2326 203.912 63.2316C204.994 65.1979 205.534 67.3608 205.534 69.7203C205.534 69.9824 205.534 70.2446 205.534 70.5068C205.534 70.7362 205.518 70.9164 205.485 71.0475H183.561C183.725 72.8827 184.233 74.5212 185.085 75.9631C185.97 77.3723 187.101 78.5029 188.477 79.3549C189.886 80.1742 191.41 80.5838 193.049 80.5838C194.72 80.5838 196.293 80.1578 197.768 79.3058C199.275 78.4537 200.324 77.3395 200.914 75.9631L203.814 76.7496C203.289 77.9621 202.487 79.06 201.405 80.0431C200.324 81.0262 199.046 81.7963 197.571 82.3535C196.129 82.8778 194.572 83.14 192.901 83.14ZM183.463 68.6388H202.388C202.257 66.7709 201.749 65.1323 200.864 63.7232C200.012 62.314 198.882 61.2162 197.473 60.4297C196.096 59.6104 194.572 59.2008 192.901 59.2008C191.23 59.2008 189.706 59.6104 188.33 60.4297C186.953 61.2162 185.823 62.3304 184.938 63.7723C184.086 65.1815 183.594 66.8036 183.463 68.6388ZM221.604 83.14C219.769 83.14 218.065 82.7959 216.492 82.1077C214.952 81.3867 213.608 80.42 212.461 79.2074C211.347 77.9621 210.478 76.553 209.856 74.98C209.233 73.3742 208.922 71.6865 208.922 69.9169C208.922 68.0817 209.233 66.3776 209.856 64.8046C210.478 63.1988 211.363 61.7897 212.51 60.5772C213.657 59.3319 215.001 58.3651 216.541 57.6769C218.114 56.956 219.818 56.5955 221.653 56.5955C223.489 56.5955 225.176 56.956 226.716 57.6769C228.257 58.3651 229.6 59.3319 230.747 60.5772C231.894 61.7897 232.779 63.1988 233.402 64.8046C234.024 66.3776 234.336 68.0817 234.336 69.9169C234.336 71.6865 234.024 73.3742 233.402 74.98C232.779 76.553 231.894 77.9621 230.747 79.2074C229.633 80.42 228.289 81.3867 226.716 82.1077C225.176 82.7959 223.472 83.14 221.604 83.14ZM212.314 69.966C212.314 71.8668 212.723 73.6036 213.543 75.1766C214.395 76.7169 215.525 77.9458 216.934 78.8633C218.343 79.7482 219.9 80.1906 221.604 80.1906C223.308 80.1906 224.865 79.7318 226.274 78.8142C227.683 77.8966 228.814 76.6513 229.666 75.0783C230.518 73.4725 230.944 71.7357 230.944 69.8677C230.944 67.967 230.518 66.2302 229.666 64.6572C228.814 63.0841 227.683 61.8389 226.274 60.9213C224.865 60.0037 223.308 59.5449 221.604 59.5449C219.9 59.5449 218.343 60.0201 216.934 60.9704C215.558 61.9208 214.444 63.1825 213.592 64.7555C212.74 66.2957 212.314 68.0326 212.314 69.966ZM261.457 82.6484H258.114V68.3439C258.114 65.329 257.672 63.1333 256.787 61.7569C255.902 60.3478 254.509 59.6432 252.608 59.6432C251.298 59.6432 250.003 59.9709 248.725 60.6263C247.447 61.249 246.316 62.1174 245.333 63.2316C244.383 64.3131 243.695 65.5584 243.269 66.9675V82.6484H239.926V57.0379H242.974V62.8384C243.662 61.5931 244.563 60.5116 245.677 59.594C246.792 58.6437 248.053 57.9063 249.462 57.382C250.872 56.8577 252.33 56.5955 253.837 56.5955C255.247 56.5955 256.443 56.8577 257.426 57.382C258.409 57.9063 259.195 58.6601 259.785 59.6432C260.375 60.5936 260.801 61.7569 261.063 63.1333C261.326 64.4769 261.457 65.9844 261.457 67.6557V82.6484ZM266.52 75.2749C266.52 73.6692 266.979 72.2928 267.896 71.1458C268.814 69.966 270.076 69.0648 271.682 68.4422C273.32 67.7868 275.204 67.4591 277.334 67.4591C278.58 67.4591 279.874 67.5574 281.218 67.754C282.561 67.9506 283.758 68.2456 284.806 68.6388V66.4759C284.806 64.3131 284.167 62.5926 282.889 61.3145C281.611 60.0365 279.841 59.3974 277.58 59.3974C276.204 59.3974 274.844 59.6596 273.5 60.1839C272.189 60.6755 270.813 61.4128 269.371 62.396L268.093 60.0365C269.764 58.8895 271.403 58.0374 273.009 57.4803C274.615 56.8904 276.253 56.5955 277.924 56.5955C281.07 56.5955 283.561 57.4967 285.396 59.2991C287.231 61.1015 288.149 63.5921 288.149 66.7709V78.6176C288.149 79.0764 288.247 79.4205 288.444 79.6499C288.64 79.8465 288.952 79.9612 289.378 79.9939V82.6484C289.017 82.6812 288.706 82.7139 288.444 82.7467C288.182 82.7795 287.985 82.7795 287.854 82.7467C287.035 82.7139 286.412 82.4518 285.986 81.9602C285.56 81.4686 285.331 80.9443 285.298 80.3872L285.249 78.5193C284.102 79.9939 282.611 81.1409 280.775 81.9602C278.94 82.7467 277.072 83.14 275.172 83.14C273.533 83.14 272.042 82.7959 270.698 82.1077C269.388 81.3867 268.355 80.4364 267.602 79.2566C266.881 78.0441 266.52 76.7169 266.52 75.2749ZM283.676 77.2412C284.036 76.7824 284.315 76.34 284.511 75.914C284.708 75.4879 284.806 75.1111 284.806 74.7834V71.0475C283.692 70.6215 282.529 70.2938 281.316 70.0644C280.136 69.835 278.94 69.7203 277.728 69.7203C275.335 69.7203 273.402 70.1954 271.927 71.1458C270.453 72.0962 269.715 73.3906 269.715 75.0292C269.715 75.9795 269.961 76.8807 270.453 77.7328C270.944 78.552 271.665 79.2402 272.615 79.7973C273.566 80.3217 274.68 80.5838 275.958 80.5838C277.564 80.5838 279.055 80.2725 280.431 79.6499C281.84 79.0272 282.922 78.2243 283.676 77.2412ZM308.152 59.9873C305.923 60.0528 303.957 60.6755 302.253 61.8552C300.582 63.035 299.402 64.6572 298.714 66.7217V82.6484H295.371V57.0379H298.517V63.1825C299.402 61.3801 300.565 59.9218 302.007 58.8075C303.482 57.6933 305.038 57.0707 306.677 56.9396C307.005 56.9068 307.283 56.8904 307.513 56.8904C307.775 56.8904 307.988 56.9068 308.152 56.9396V59.9873ZM310.164 69.9169C310.164 67.4918 310.656 65.2798 311.639 63.2808C312.655 61.249 314.047 59.6268 315.817 58.4143C317.587 57.2018 319.602 56.5955 321.863 56.5955C323.993 56.5955 325.894 57.169 327.565 58.316C329.27 59.4302 330.597 60.7902 331.547 62.396V46.7642H334.89V78.6176C334.89 79.0764 334.988 79.4205 335.185 79.6499C335.381 79.8465 335.676 79.9612 336.069 79.9939V82.6484C335.414 82.7467 334.906 82.7795 334.546 82.7467C333.857 82.7139 333.251 82.4354 332.727 81.911C332.203 81.3867 331.94 80.8132 331.94 80.1906V77.6836C330.924 79.3549 329.548 80.6821 327.811 81.6653C326.074 82.6484 324.272 83.14 322.404 83.14C320.634 83.14 318.996 82.7795 317.488 82.0585C316.014 81.3376 314.719 80.3544 313.605 79.1091C312.524 77.8638 311.672 76.4547 311.049 74.8817C310.459 73.2759 310.164 71.621 310.164 69.9169ZM331.547 73.8494V65.9352C331.121 64.7555 330.433 63.6904 329.483 62.7401C328.532 61.7569 327.451 60.9868 326.238 60.4297C325.058 59.8398 323.879 59.5449 322.699 59.5449C321.323 59.5449 320.077 59.8398 318.963 60.4297C317.849 60.9868 316.882 61.7569 316.063 62.7401C315.276 63.7232 314.67 64.8374 314.244 66.0827C313.818 67.328 313.605 68.606 313.605 69.9169C313.605 71.2933 313.834 72.6041 314.293 73.8494C314.785 75.0947 315.473 76.2089 316.358 77.192C317.243 78.1424 318.258 78.8797 319.405 79.4041C320.552 79.9284 321.798 80.1906 323.141 80.1906C323.993 80.1906 324.878 80.0267 325.796 79.699C326.713 79.3713 327.582 78.9289 328.401 78.3718C329.253 77.7819 329.958 77.0937 330.515 76.3072C331.072 75.5207 331.416 74.7014 331.547 73.8494ZM353.376 83.14C351.541 83.14 349.837 82.7959 348.264 82.1077C346.723 81.3867 345.38 80.42 344.233 79.2074C343.119 77.9621 342.25 76.553 341.628 74.98C341.005 73.3742 340.694 71.6865 340.694 69.9169C340.694 68.0817 341.005 66.3776 341.628 64.8046C342.25 63.1988 343.135 61.7897 344.282 60.5772C345.429 59.3319 346.773 58.3651 348.313 57.6769C349.886 56.956 351.59 56.5955 353.425 56.5955C355.26 56.5955 356.948 56.956 358.488 57.6769C360.028 58.3651 361.372 59.3319 362.519 60.5772C363.666 61.7897 364.551 63.1988 365.174 64.8046C365.796 66.3776 366.107 68.0817 366.107 69.9169C366.107 71.6865 365.796 73.3742 365.174 74.98C364.551 76.553 363.666 77.9621 362.519 79.2074C361.405 80.42 360.061 81.3867 358.488 82.1077C356.948 82.7959 355.244 83.14 353.376 83.14ZM344.085 69.966C344.085 71.8668 344.495 73.6036 345.314 75.1766C346.166 76.7169 347.297 77.9458 348.706 78.8633C350.115 79.7482 351.672 80.1906 353.376 80.1906C355.08 80.1906 356.637 79.7318 358.046 78.8142C359.455 77.8966 360.586 76.6513 361.438 75.0783C362.29 73.4725 362.716 71.7357 362.716 69.8677C362.716 67.967 362.29 66.2302 361.438 64.6572C360.586 63.0841 359.455 61.8389 358.046 60.9213C356.637 60.0037 355.08 59.5449 353.376 59.5449C351.672 59.5449 350.115 60.0201 348.706 60.9704C347.33 61.9208 346.216 63.1825 345.363 64.7555C344.511 66.2957 344.085 68.0326 344.085 69.966ZM384.915 82.6484V47.7474H407.822V50.7951H388.356V63.6249H404.774V66.4759H388.356V82.6484H384.915ZM422.602 83.14C420.766 83.14 419.062 82.7959 417.489 82.1077C415.916 81.3867 414.556 80.42 413.409 79.2074C412.262 77.9621 411.361 76.5366 410.706 74.9308C410.083 73.3251 409.772 71.6046 409.772 69.7694C409.772 67.3771 410.313 65.1815 411.394 63.1825C412.508 61.1834 414.032 59.594 415.965 58.4143C417.899 57.2018 420.095 56.5955 422.552 56.5955C425.076 56.5955 427.271 57.2018 429.139 58.4143C431.04 59.6268 432.531 61.2326 433.613 63.2316C434.694 65.1979 435.235 67.3608 435.235 69.7203C435.235 69.9824 435.235 70.2446 435.235 70.5068C435.235 70.7362 435.218 70.9164 435.186 71.0475H413.262C413.426 72.8827 413.934 74.5212 414.786 75.9631C415.671 77.3723 416.801 78.5029 418.178 79.3549C419.587 80.1742 421.111 80.5838 422.749 80.5838C424.42 80.5838 425.993 80.1578 427.468 79.3058C428.976 78.4537 430.024 77.3395 430.614 75.9631L433.514 76.7496C432.99 77.9621 432.187 79.06 431.106 80.0431C430.024 81.0262 428.746 81.7963 427.271 82.3535C425.83 82.8778 424.273 83.14 422.602 83.14ZM413.164 68.6388H432.089C431.958 66.7709 431.45 65.1323 430.565 63.7232C429.713 62.314 428.582 61.2162 427.173 60.4297C425.797 59.6104 424.273 59.2008 422.602 59.2008C420.93 59.2008 419.406 59.6104 418.03 60.4297C416.654 61.2162 415.523 62.3304 414.638 63.7723C413.786 65.1815 413.295 66.8036 413.164 68.6388ZM453.173 59.9873C450.944 60.0528 448.978 60.6755 447.274 61.8552C445.603 63.035 444.423 64.6572 443.735 66.7217V82.6484H440.392V57.0379H443.538V63.1825C444.423 61.3801 445.586 59.9218 447.028 58.8075C448.503 57.6933 450.059 57.0707 451.698 56.9396C452.026 56.9068 452.304 56.8904 452.534 56.8904C452.796 56.8904 453.009 56.9068 453.173 56.9396V59.9873ZM479.156 82.6484H475.813V68.3439C475.813 65.329 475.371 63.1333 474.486 61.7569C473.601 60.3478 472.209 59.6432 470.308 59.6432C468.997 59.6432 467.703 59.9709 466.425 60.6263C465.146 61.249 464.016 62.1174 463.033 63.2316C462.082 64.3131 461.394 65.5584 460.968 66.9675V82.6484H457.626V57.0379H460.673V62.8384C461.361 61.5931 462.263 60.5116 463.377 59.594C464.491 58.6437 465.753 57.9063 467.162 57.382C468.571 56.8577 470.029 56.5955 471.537 56.5955C472.946 56.5955 474.142 56.8577 475.125 57.382C476.108 57.9063 476.895 58.6601 477.485 59.6432C478.075 60.5936 478.501 61.7569 478.763 63.1333C479.025 64.4769 479.156 65.9844 479.156 67.6557V82.6484ZM484.22 75.2749C484.22 73.6692 484.678 72.2928 485.596 71.1458C486.513 69.966 487.775 69.0648 489.381 68.4422C491.019 67.7868 492.904 67.4591 495.034 67.4591C496.279 67.4591 497.574 67.5574 498.917 67.754C500.261 67.9506 501.457 68.2456 502.506 68.6388V66.4759C502.506 64.3131 501.867 62.5926 500.589 61.3145C499.311 60.0365 497.541 59.3974 495.28 59.3974C493.903 59.3974 492.543 59.6596 491.2 60.1839C489.889 60.6755 488.513 61.4128 487.071 62.396L485.793 60.0365C487.464 58.8895 489.102 58.0374 490.708 57.4803C492.314 56.8904 493.952 56.5955 495.624 56.5955C498.77 56.5955 501.26 57.4967 503.096 59.2991C504.931 61.1015 505.848 63.5921 505.848 66.7709V78.6176C505.848 79.0764 505.947 79.4205 506.143 79.6499C506.34 79.8465 506.651 79.9612 507.077 79.9939V82.6484C506.717 82.6812 506.405 82.7139 506.143 82.7467C505.881 82.7795 505.684 82.7795 505.553 82.7467C504.734 82.7139 504.111 82.4518 503.685 81.9602C503.259 81.4686 503.03 80.9443 502.997 80.3872L502.948 78.5193C501.801 79.9939 500.31 81.1409 498.475 81.9602C496.64 82.7467 494.772 83.14 492.871 83.14C491.233 83.14 489.741 82.7959 488.398 82.1077C487.087 81.3867 486.055 80.4364 485.301 79.2566C484.58 78.0441 484.22 76.7169 484.22 75.2749ZM501.375 77.2412C501.736 76.7824 502.014 76.34 502.211 75.914C502.407 75.4879 502.506 75.1111 502.506 74.7834V71.0475C501.391 70.6215 500.228 70.2938 499.016 70.0644C497.836 69.835 496.64 69.7203 495.427 69.7203C493.035 69.7203 491.101 70.1954 489.627 71.1458C488.152 72.0962 487.415 73.3906 487.415 75.0292C487.415 75.9795 487.66 76.8807 488.152 77.7328C488.644 78.552 489.365 79.2402 490.315 79.7973C491.265 80.3217 492.379 80.5838 493.658 80.5838C495.263 80.5838 496.754 80.2725 498.131 79.6499C499.54 79.0272 500.621 78.2243 501.375 77.2412ZM534.601 82.6484H531.258V68.3439C531.258 65.329 530.816 63.1333 529.931 61.7569C529.046 60.3478 527.654 59.6432 525.753 59.6432C524.442 59.6432 523.148 59.9709 521.869 60.6263C520.591 61.249 519.461 62.1174 518.478 63.2316C517.527 64.3131 516.839 65.5584 516.413 66.9675V82.6484H513.071V57.0379H516.118V62.8384C516.806 61.5931 517.708 60.5116 518.822 59.594C519.936 58.6437 521.198 57.9063 522.607 57.382C524.016 56.8577 525.474 56.5955 526.982 56.5955C528.391 56.5955 529.587 56.8577 530.57 57.382C531.553 57.9063 532.34 58.6601 532.93 59.6432C533.52 60.5936 533.946 61.7569 534.208 63.1333C534.47 64.4769 534.601 65.9844 534.601 67.6557V82.6484ZM540.009 69.9169C540.009 67.4918 540.5 65.2798 541.483 63.2808C542.499 61.249 543.892 59.6268 545.662 58.4143C547.431 57.2018 549.447 56.5955 551.708 56.5955C553.838 56.5955 555.739 57.169 557.41 58.316C559.114 59.4302 560.441 60.7902 561.392 62.396V46.7642H564.734V78.6176C564.734 79.0764 564.833 79.4205 565.029 79.6499C565.226 79.8465 565.521 79.9612 565.914 79.9939V82.6484C565.259 82.7467 564.751 82.7795 564.39 82.7467C563.702 82.7139 563.096 82.4354 562.571 81.911C562.047 81.3867 561.785 80.8132 561.785 80.1906V77.6836C560.769 79.3549 559.393 80.6821 557.656 81.6653C555.919 82.6484 554.116 83.14 552.249 83.14C550.479 83.14 548.84 82.7795 547.333 82.0585C545.858 81.3376 544.564 80.3544 543.45 79.1091C542.368 77.8638 541.516 76.4547 540.893 74.8817C540.304 73.2759 540.009 71.621 540.009 69.9169ZM561.392 73.8494V65.9352C560.966 64.7555 560.277 63.6904 559.327 62.7401C558.377 61.7569 557.295 60.9868 556.083 60.4297C554.903 59.8398 553.723 59.5449 552.543 59.5449C551.167 59.5449 549.922 59.8398 548.808 60.4297C547.693 60.9868 546.727 61.7569 545.907 62.7401C545.121 63.7232 544.515 64.8374 544.089 66.0827C543.663 67.328 543.45 68.606 543.45 69.9169C543.45 71.2933 543.679 72.6041 544.138 73.8494C544.629 75.0947 545.317 76.2089 546.202 77.192C547.087 78.1424 548.103 78.8797 549.25 79.4041C550.397 79.9284 551.642 80.1906 552.986 80.1906C553.838 80.1906 554.723 80.0267 555.64 79.699C556.558 79.3713 557.426 78.9289 558.246 78.3718C559.098 77.7819 559.802 77.0937 560.359 76.3072C560.916 75.5207 561.261 74.7014 561.392 73.8494ZM583.368 83.14C581.533 83.14 579.829 82.7959 578.256 82.1077C576.683 81.3867 575.323 80.42 574.176 79.2074C573.029 77.9621 572.128 76.5366 571.472 74.9308C570.849 73.3251 570.538 71.6046 570.538 69.7694C570.538 67.3771 571.079 65.1815 572.16 63.1825C573.275 61.1834 574.798 59.594 576.732 58.4143C578.665 57.2018 580.861 56.5955 583.319 56.5955C585.842 56.5955 588.038 57.2018 589.906 58.4143C591.806 59.6268 593.298 61.2326 594.379 63.2316C595.46 65.1979 596.001 67.3608 596.001 69.7203C596.001 69.9824 596.001 70.2446 596.001 70.5068C596.001 70.7362 595.985 70.9164 595.952 71.0475H574.028C574.192 72.8827 574.7 74.5212 575.552 75.9631C576.437 77.3723 577.568 78.5029 578.944 79.3549C580.353 80.1742 581.877 80.5838 583.515 80.5838C585.187 80.5838 586.76 80.1578 588.234 79.3058C589.742 78.4537 590.791 77.3395 591.38 75.9631L594.281 76.7496C593.756 77.9621 592.953 79.06 591.872 80.0431C590.791 81.0262 589.513 81.7963 588.038 82.3535C586.596 82.8778 585.039 83.14 583.368 83.14ZM573.93 68.6388H592.855C592.724 66.7709 592.216 65.1323 591.331 63.7232C590.479 62.314 589.349 61.2162 587.94 60.4297C586.563 59.6104 585.039 59.2008 583.368 59.2008C581.697 59.2008 580.173 59.6104 578.796 60.4297C577.42 61.2162 576.289 62.3304 575.405 63.7723C574.553 65.1815 574.061 66.8036 573.93 68.6388ZM598.659 80.3872L615.815 59.5449H599.053V57.0379H619.6V59.2991L602.543 80.1414H619.551V82.6484H598.659V80.3872Z" fill="#515151"/>
</svg>
