<svg width="258" height="78" viewBox="0 0 258 78" fill="none" xmlns="http://www.w3.org/2000/svg">
<path d="M15.192 70.432C13.272 70.432 11.496 70.084 9.864 69.388C8.256 68.692 6.84 67.72 5.616 66.472C4.416 65.224 3.48 63.76 2.808 62.08C2.136 60.4 1.8 58.564 1.8 56.572C1.8 54.58 2.124 52.744 2.772 51.064C3.444 49.36 4.38 47.896 5.58 46.672C6.804 45.424 8.232 44.464 9.864 43.792C11.496 43.096 13.272 42.748 15.192 42.748C17.112 42.748 18.828 43.072 20.34 43.72C21.876 44.368 23.172 45.232 24.228 46.312C25.284 47.368 26.04 48.532 26.496 49.804L22.104 51.856C21.6 50.512 20.748 49.408 19.548 48.544C18.348 47.656 16.896 47.212 15.192 47.212C13.512 47.212 12.024 47.608 10.728 48.4C9.456 49.192 8.46 50.284 7.74 51.676C7.044 53.068 6.696 54.7 6.696 56.572C6.696 58.444 7.044 60.088 7.74 61.504C8.46 62.896 9.456 63.988 10.728 64.78C12.024 65.572 13.512 65.968 15.192 65.968C16.896 65.968 18.348 65.536 19.548 64.672C20.748 63.784 21.6 62.668 22.104 61.324L26.496 63.376C26.04 64.648 25.284 65.824 24.228 66.904C23.172 67.96 21.876 68.812 20.34 69.46C18.828 70.108 17.112 70.432 15.192 70.432ZM39.2993 70.432C37.3793 70.432 35.6273 69.988 34.0433 69.1C32.4833 68.212 31.2353 67 30.2993 65.464C29.3873 63.928 28.9313 62.176 28.9313 60.208C28.9313 58.24 29.3873 56.488 30.2993 54.952C31.2353 53.416 32.4833 52.204 34.0433 51.316C35.6033 50.428 37.3553 49.984 39.2993 49.984C41.2193 49.984 42.9593 50.428 44.5193 51.316C46.0793 52.204 47.3153 53.416 48.2273 54.952C49.1633 56.464 49.6313 58.216 49.6313 60.208C49.6313 62.176 49.1633 63.928 48.2273 65.464C47.2913 67 46.0433 68.212 44.4833 69.1C42.9233 69.988 41.1953 70.432 39.2993 70.432ZM39.2993 66.112C40.3553 66.112 41.2793 65.86 42.0713 65.356C42.8873 64.852 43.5233 64.156 43.9793 63.268C44.4593 62.356 44.6993 61.336 44.6993 60.208C44.6993 59.056 44.4593 58.048 43.9793 57.184C43.5233 56.296 42.8873 55.6 42.0713 55.096C41.2793 54.568 40.3553 54.304 39.2993 54.304C38.2193 54.304 37.2713 54.568 36.4553 55.096C35.6393 55.6 34.9913 56.296 34.5113 57.184C34.0553 58.048 33.8273 59.056 33.8273 60.208C33.8273 61.336 34.0553 62.356 34.5113 63.268C34.9913 64.156 35.6393 64.852 36.4553 65.356C37.2713 65.86 38.2193 66.112 39.2993 66.112ZM53.2077 70V50.416H57.6357V54.952L57.1317 54.196C57.4917 52.78 58.2117 51.724 59.2917 51.028C60.3717 50.332 61.6437 49.984 63.1077 49.984C64.7157 49.984 66.1317 50.404 67.3557 51.244C68.5797 52.084 69.3717 53.188 69.7317 54.556L68.3997 54.664C68.9997 53.104 69.8997 51.94 71.0997 51.172C72.2997 50.38 73.6797 49.984 75.2397 49.984C76.6317 49.984 77.8677 50.296 78.9477 50.92C80.0517 51.544 80.9157 52.42 81.5397 53.548C82.1637 54.652 82.4757 55.936 82.4757 57.4V70H77.7597V58.516C77.7597 57.652 77.6037 56.908 77.2917 56.284C76.9797 55.66 76.5477 55.18 75.9957 54.844C75.4437 54.484 74.7717 54.304 73.9797 54.304C73.2357 54.304 72.5757 54.484 71.9997 54.844C71.4237 55.18 70.9797 55.66 70.6677 56.284C70.3557 56.908 70.1997 57.652 70.1997 58.516V70H65.4837V58.516C65.4837 57.652 65.3277 56.908 65.0157 56.284C64.7037 55.66 64.2597 55.18 63.6837 54.844C63.1317 54.484 62.4717 54.304 61.7037 54.304C60.9597 54.304 60.2997 54.484 59.7237 54.844C59.1477 55.18 58.7037 55.66 58.3917 56.284C58.0797 56.908 57.9237 57.652 57.9237 58.516V70H53.2077ZM86.4655 77.2V50.416H90.8935V54.304L90.4615 53.332C91.1335 52.276 92.0455 51.46 93.1975 50.884C94.3495 50.284 95.6815 49.984 97.1935 49.984C99.0415 49.984 100.71 50.44 102.198 51.352C103.686 52.264 104.862 53.488 105.726 55.024C106.614 56.56 107.058 58.288 107.058 60.208C107.058 62.104 106.626 63.832 105.762 65.392C104.898 66.952 103.722 68.188 102.234 69.1C100.746 69.988 99.0535 70.432 97.1575 70.432C95.7415 70.432 94.4335 70.156 93.2335 69.604C92.0575 69.028 91.1215 68.212 90.4255 67.156L91.1815 66.22V77.2H86.4655ZM96.6175 66.112C97.6975 66.112 98.6575 65.86 99.4975 65.356C100.338 64.852 100.986 64.156 101.442 63.268C101.922 62.38 102.162 61.36 102.162 60.208C102.162 59.056 101.922 58.048 101.442 57.184C100.986 56.296 100.338 55.6 99.4975 55.096C98.6575 54.568 97.6975 54.304 96.6175 54.304C95.5855 54.304 94.6495 54.556 93.8095 55.06C92.9935 55.564 92.3455 56.272 91.8655 57.184C91.4095 58.072 91.1815 59.08 91.1815 60.208C91.1815 61.36 91.4095 62.38 91.8655 63.268C92.3455 64.156 92.9935 64.852 93.8095 65.356C94.6495 65.86 95.5855 66.112 96.6175 66.112ZM119.941 70.432C117.925 70.432 116.161 69.976 114.649 69.064C113.137 68.152 111.961 66.916 111.121 65.356C110.281 63.796 109.861 62.068 109.861 60.172C109.861 58.204 110.281 56.464 111.121 54.952C111.985 53.416 113.149 52.204 114.613 51.316C116.101 50.428 117.757 49.984 119.581 49.984C121.117 49.984 122.461 50.236 123.613 50.74C124.789 51.244 125.785 51.94 126.601 52.828C127.417 53.716 128.041 54.736 128.473 55.888C128.905 57.016 129.121 58.24 129.121 59.56C129.121 59.896 129.097 60.244 129.049 60.604C129.025 60.964 128.965 61.276 128.869 61.54H113.749V57.94H126.205L123.973 59.632C124.189 58.528 124.129 57.544 123.793 56.68C123.481 55.816 122.953 55.132 122.209 54.628C121.489 54.124 120.613 53.872 119.581 53.872C118.597 53.872 117.721 54.124 116.953 54.628C116.185 55.108 115.597 55.828 115.189 56.788C114.805 57.724 114.661 58.864 114.757 60.208C114.661 61.408 114.817 62.476 115.225 63.412C115.657 64.324 116.281 65.032 117.097 65.536C117.937 66.04 118.897 66.292 119.977 66.292C121.057 66.292 121.969 66.064 122.713 65.608C123.481 65.152 124.081 64.54 124.513 63.772L128.329 65.644C127.945 66.58 127.345 67.408 126.529 68.128C125.713 68.848 124.741 69.412 123.613 69.82C122.509 70.228 121.285 70.432 119.941 70.432ZM141.624 70.216C139.416 70.216 137.7 69.616 136.476 68.416C135.276 67.192 134.676 65.476 134.676 63.268V54.628H131.292V50.416H131.652C132.612 50.416 133.356 50.164 133.884 49.66C134.412 49.156 134.676 48.424 134.676 47.464V45.952H139.392V50.416H143.892V54.628H139.392V63.016C139.392 63.664 139.5 64.216 139.716 64.672C139.956 65.128 140.316 65.476 140.796 65.716C141.3 65.956 141.936 66.076 142.704 66.076C142.872 66.076 143.064 66.064 143.28 66.04C143.52 66.016 143.748 65.992 143.964 65.968V70C143.628 70.048 143.244 70.096 142.812 70.144C142.38 70.192 141.984 70.216 141.624 70.216ZM156.679 70.432C154.663 70.432 152.899 69.976 151.387 69.064C149.875 68.152 148.699 66.916 147.859 65.356C147.019 63.796 146.599 62.068 146.599 60.172C146.599 58.204 147.019 56.464 147.859 54.952C148.723 53.416 149.887 52.204 151.351 51.316C152.839 50.428 154.495 49.984 156.319 49.984C157.855 49.984 159.199 50.236 160.351 50.74C161.527 51.244 162.523 51.94 163.339 52.828C164.155 53.716 164.779 54.736 165.211 55.888C165.643 57.016 165.859 58.24 165.859 59.56C165.859 59.896 165.835 60.244 165.787 60.604C165.763 60.964 165.703 61.276 165.607 61.54H150.487V57.94H162.943L160.711 59.632C160.927 58.528 160.867 57.544 160.531 56.68C160.219 55.816 159.691 55.132 158.947 54.628C158.227 54.124 157.351 53.872 156.319 53.872C155.335 53.872 154.459 54.124 153.691 54.628C152.923 55.108 152.335 55.828 151.927 56.788C151.543 57.724 151.399 58.864 151.495 60.208C151.399 61.408 151.555 62.476 151.963 63.412C152.395 64.324 153.019 65.032 153.835 65.536C154.675 66.04 155.635 66.292 156.715 66.292C157.795 66.292 158.707 66.064 159.451 65.608C160.219 65.152 160.819 64.54 161.251 63.772L165.067 65.644C164.683 66.58 164.083 67.408 163.267 68.128C162.451 68.848 161.479 69.412 160.351 69.82C159.247 70.228 158.023 70.432 156.679 70.432ZM149.227 46.96L153.439 41.02H159.019L163.267 46.96H158.587L156.247 43.72L153.907 46.96H149.227ZM169.434 70V50.416H173.862V54.268L173.502 53.584C173.958 52.408 174.702 51.52 175.734 50.92C176.79 50.296 178.014 49.984 179.406 49.984C180.846 49.984 182.118 50.296 183.222 50.92C184.35 51.544 185.226 52.42 185.85 53.548C186.474 54.652 186.786 55.936 186.786 57.4V70H182.07V58.516C182.07 57.652 181.902 56.908 181.566 56.284C181.23 55.66 180.762 55.18 180.162 54.844C179.586 54.484 178.902 54.304 178.11 54.304C177.342 54.304 176.658 54.484 176.058 54.844C175.458 55.18 174.99 55.66 174.654 56.284C174.318 56.908 174.15 57.652 174.15 58.516V70H169.434ZM200.206 70.432C198.262 70.432 196.51 69.988 194.95 69.1C193.414 68.188 192.202 66.964 191.314 65.428C190.426 63.868 189.982 62.116 189.982 60.172C189.982 58.228 190.426 56.488 191.314 54.952C192.202 53.416 193.414 52.204 194.95 51.316C196.51 50.428 198.262 49.984 200.206 49.984C201.598 49.984 202.894 50.236 204.094 50.74C205.294 51.22 206.326 51.892 207.19 52.756C208.078 53.596 208.714 54.604 209.098 55.78L204.958 57.58C204.598 56.596 203.986 55.804 203.122 55.204C202.282 54.604 201.31 54.304 200.206 54.304C199.174 54.304 198.25 54.556 197.434 55.06C196.642 55.564 196.018 56.26 195.562 57.148C195.106 58.036 194.878 59.056 194.878 60.208C194.878 61.36 195.106 62.38 195.562 63.268C196.018 64.156 196.642 64.852 197.434 65.356C198.25 65.86 199.174 66.112 200.206 66.112C201.334 66.112 202.318 65.812 203.158 65.212C203.998 64.612 204.598 63.808 204.958 62.8L209.098 64.672C208.714 65.776 208.09 66.772 207.226 67.66C206.362 68.524 205.33 69.208 204.13 69.712C202.93 70.192 201.622 70.432 200.206 70.432ZM212.676 70V50.416H217.392V70H212.676ZM212.676 48.22V43.18H217.392V48.22H212.676ZM227.687 70.432C226.319 70.432 225.131 70.204 224.123 69.748C223.115 69.292 222.335 68.644 221.783 67.804C221.231 66.94 220.955 65.944 220.955 64.816C220.955 63.736 221.195 62.776 221.675 61.936C222.155 61.072 222.899 60.352 223.907 59.776C224.915 59.2 226.187 58.792 227.723 58.552L234.131 57.508V61.108L228.623 62.044C227.687 62.212 226.991 62.512 226.535 62.944C226.079 63.376 225.851 63.94 225.851 64.636C225.851 65.308 226.103 65.848 226.607 66.256C227.135 66.64 227.783 66.832 228.551 66.832C229.535 66.832 230.399 66.628 231.143 66.22C231.911 65.788 232.499 65.2 232.907 64.456C233.339 63.712 233.555 62.896 233.555 62.008V56.968C233.555 56.128 233.219 55.432 232.547 54.88C231.899 54.304 231.035 54.016 229.955 54.016C228.947 54.016 228.047 54.292 227.255 54.844C226.487 55.372 225.923 56.08 225.563 56.968L221.711 55.096C222.095 54.064 222.695 53.176 223.511 52.432C224.351 51.664 225.335 51.064 226.463 50.632C227.591 50.2 228.815 49.984 230.135 49.984C231.743 49.984 233.159 50.284 234.383 50.884C235.607 51.46 236.555 52.276 237.227 53.332C237.923 54.364 238.271 55.576 238.271 56.968V70H233.807V66.652L234.815 66.58C234.311 67.42 233.711 68.128 233.015 68.704C232.319 69.256 231.527 69.688 230.639 70C229.751 70.288 228.767 70.432 227.687 70.432ZM250.082 70.432C247.994 70.432 246.17 69.94 244.61 68.956C243.074 67.948 242.018 66.592 241.442 64.888L244.97 63.196C245.474 64.3 246.17 65.164 247.058 65.788C247.97 66.412 248.978 66.724 250.082 66.724C250.946 66.724 251.63 66.532 252.134 66.148C252.638 65.764 252.89 65.26 252.89 64.636C252.89 64.252 252.782 63.94 252.566 63.7C252.374 63.436 252.098 63.22 251.738 63.052C251.402 62.86 251.03 62.704 250.622 62.584L247.418 61.684C245.762 61.204 244.502 60.472 243.638 59.488C242.798 58.504 242.378 57.34 242.378 55.996C242.378 54.796 242.678 53.752 243.278 52.864C243.902 51.952 244.754 51.244 245.834 50.74C246.938 50.236 248.198 49.984 249.614 49.984C251.462 49.984 253.094 50.428 254.51 51.316C255.926 52.204 256.934 53.452 257.534 55.06L253.934 56.752C253.598 55.864 253.034 55.156 252.242 54.628C251.45 54.1 250.562 53.836 249.578 53.836C248.786 53.836 248.162 54.016 247.706 54.376C247.25 54.736 247.022 55.204 247.022 55.78C247.022 56.14 247.118 56.452 247.31 56.716C247.502 56.98 247.766 57.196 248.102 57.364C248.462 57.532 248.87 57.688 249.326 57.832L252.458 58.768C254.066 59.248 255.302 59.968 256.166 60.928C257.054 61.888 257.498 63.064 257.498 64.456C257.498 65.632 257.186 66.676 256.562 67.588C255.938 68.476 255.074 69.172 253.97 69.676C252.866 70.18 251.57 70.432 250.082 70.432Z" fill="#232E35"/>
<path d="M32.9588 17V8.27273H34.2756V12.0653H38.6264V8.27273H39.9474V17H38.6264V13.1946H34.2756V17H32.9588ZM50.1023 17H48.7045L51.8452 8.27273H53.3665L56.5071 17H55.1094L52.642 9.85795H52.5739L50.1023 17ZM50.3366 13.5824H54.8707V14.6903H50.3366V13.5824ZM65.2674 17V8.27273H68.3782C69.0543 8.27273 69.6154 8.3892 70.0614 8.62216C70.5103 8.85511 70.8455 9.17756 71.0671 9.58949C71.2887 9.99858 71.3995 10.4716 71.3995 11.0085C71.3995 11.5426 71.2873 12.0128 71.0629 12.419C70.8413 12.8224 70.506 13.1364 70.0572 13.3608C69.6112 13.5852 69.0501 13.6974 68.3739 13.6974H66.0174V12.5639H68.2546C68.6808 12.5639 69.0273 12.5028 69.2944 12.3807C69.5643 12.2585 69.7617 12.081 69.8867 11.848C70.0117 11.6151 70.0742 11.3352 70.0742 11.0085C70.0742 10.679 70.0103 10.3935 69.8825 10.152C69.7575 9.91051 69.56 9.72585 69.2901 9.59801C69.0231 9.46733 68.6722 9.40199 68.2376 9.40199H66.5842V17H65.2674ZM69.5756 13.0625L71.7319 17H70.2319L68.1183 13.0625H69.5756ZM83.3271 17H80.5018V8.27273H83.4165C84.2717 8.27273 85.006 8.44744 85.6197 8.79688C86.2333 9.14347 86.7035 9.64205 87.0302 10.2926C87.3597 10.9403 87.5245 11.7173 87.5245 12.6236C87.5245 13.5327 87.3583 14.3139 87.0259 14.9673C86.6964 15.6207 86.2191 16.1236 85.5941 16.4759C84.9691 16.8253 84.2134 17 83.3271 17ZM81.8185 15.8494H83.2546C83.9194 15.8494 84.4719 15.7244 84.9123 15.4744C85.3526 15.2216 85.6822 14.8565 85.9009 14.3793C86.1197 13.8991 86.229 13.3139 86.229 12.6236C86.229 11.9389 86.1197 11.358 85.9009 10.8807C85.685 10.4034 85.3626 10.0412 84.9336 9.79403C84.5046 9.54687 83.9719 9.4233 83.3356 9.4233H81.8185V15.8494ZM112.098 10.5653C112.052 10.1619 111.865 9.84943 111.535 9.62784C111.206 9.40341 110.791 9.29119 110.291 9.29119C109.933 9.29119 109.623 9.34801 109.362 9.46165C109.1 9.57244 108.897 9.72585 108.752 9.92188C108.61 10.1151 108.539 10.3352 108.539 10.5824C108.539 10.7898 108.588 10.9687 108.684 11.1193C108.784 11.2699 108.913 11.3963 109.072 11.4986C109.234 11.598 109.407 11.6818 109.592 11.75C109.777 11.8153 109.954 11.8693 110.125 11.9119L110.977 12.1335C111.255 12.2017 111.541 12.294 111.833 12.4105C112.126 12.527 112.397 12.6804 112.647 12.8707C112.897 13.0611 113.099 13.2969 113.252 13.5781C113.409 13.8594 113.487 14.196 113.487 14.5881C113.487 15.0824 113.359 15.5213 113.103 15.9048C112.85 16.2884 112.483 16.5909 112 16.8125C111.52 17.0341 110.939 17.1449 110.257 17.1449C109.603 17.1449 109.038 17.0412 108.561 16.8338C108.083 16.6264 107.71 16.3324 107.44 15.9517C107.17 15.5682 107.021 15.1136 106.993 14.5881H108.314C108.339 14.9034 108.441 15.1662 108.62 15.3764C108.802 15.5838 109.034 15.7386 109.315 15.8409C109.599 15.9403 109.91 15.9901 110.248 15.9901C110.62 15.9901 110.951 15.9318 111.241 15.8153C111.534 15.696 111.764 15.5312 111.931 15.321C112.099 15.108 112.183 14.8594 112.183 14.5753C112.183 14.3168 112.109 14.1051 111.961 13.9403C111.816 13.7756 111.619 13.6392 111.369 13.5312C111.122 13.4233 110.842 13.3281 110.529 13.2457L109.498 12.9645C108.799 12.7741 108.245 12.4943 107.836 12.125C107.43 11.7557 107.227 11.267 107.227 10.6591C107.227 10.1562 107.363 9.71733 107.636 9.34233C107.909 8.96733 108.278 8.67614 108.744 8.46875C109.21 8.25852 109.735 8.15341 110.321 8.15341C110.912 8.15341 111.433 8.2571 111.885 8.46449C112.339 8.67188 112.697 8.95739 112.958 9.32102C113.22 9.68182 113.356 10.0966 113.368 10.5653H112.098ZM122.56 17V8.27273H123.877V12.4403H123.984L127.644 8.27273H129.302L125.782 12.2017L129.315 17H127.729L124.908 13.1009L123.877 14.2855V17H122.56ZM139.346 8.27273V17H138.029V8.27273H139.346ZM148.763 17V8.27273H150.08V15.8665H154.035V17H148.763ZM163.037 17V8.27273H164.354V15.8665H168.308V17H163.037ZM182.07 10.5653C182.025 10.1619 181.837 9.84943 181.508 9.62784C181.178 9.40341 180.763 9.29119 180.263 9.29119C179.906 9.29119 179.596 9.34801 179.335 9.46165C179.073 9.57244 178.87 9.72585 178.725 9.92188C178.583 10.1151 178.512 10.3352 178.512 10.5824C178.512 10.7898 178.56 10.9687 178.657 11.1193C178.756 11.2699 178.886 11.3963 179.045 11.4986C179.207 11.598 179.38 11.6818 179.565 11.75C179.749 11.8153 179.927 11.8693 180.097 11.9119L180.95 12.1335C181.228 12.2017 181.513 12.294 181.806 12.4105C182.099 12.527 182.37 12.6804 182.62 12.8707C182.87 13.0611 183.072 13.2969 183.225 13.5781C183.381 13.8594 183.46 14.196 183.46 14.5881C183.46 15.0824 183.332 15.5213 183.076 15.9048C182.823 16.2884 182.455 16.5909 181.972 16.8125C181.492 17.0341 180.911 17.1449 180.229 17.1449C179.576 17.1449 179.011 17.0412 178.533 16.8338C178.056 16.6264 177.683 16.3324 177.413 15.9517C177.143 15.5682 176.994 15.1136 176.965 14.5881H178.286C178.312 14.9034 178.414 15.1662 178.593 15.3764C178.775 15.5838 179.006 15.7386 179.288 15.8409C179.572 15.9403 179.883 15.9901 180.221 15.9901C180.593 15.9901 180.924 15.9318 181.214 15.8153C181.506 15.696 181.737 15.5312 181.904 15.321C182.072 15.108 182.156 14.8594 182.156 14.5753C182.156 14.3168 182.082 14.1051 181.934 13.9403C181.789 13.7756 181.592 13.6392 181.342 13.5312C181.094 13.4233 180.815 13.3281 180.502 13.2457L179.471 12.9645C178.772 12.7741 178.218 12.4943 177.809 12.125C177.403 11.7557 177.2 11.267 177.2 10.6591C177.2 10.1562 177.336 9.71733 177.609 9.34233C177.881 8.96733 178.251 8.67614 178.717 8.46875C179.183 8.25852 179.708 8.15341 180.293 8.15341C180.884 8.15341 181.406 8.2571 181.857 8.46449C182.312 8.67188 182.67 8.95739 182.931 9.32102C183.192 9.68182 183.329 10.0966 183.34 10.5653H182.07Z" fill="#656D72"/>
<rect y="11" width="16" height="2" fill="#D9D9D9"/>
</svg>
